<?xml version="1.0" encoding="UTF-8" standalone="no"?>
<!-- Created with Inkscape (http://www.inkscape.org/) -->

<svg
   width="1200"
   height="628"
   viewBox="0 0 1200 628"
   version="1.1"
   id="svg1"
   xml:space="preserve"
   inkscape:version="1.4.2 (ebf0e940, 2025-05-08)"
   sodipodi:docname="openfold3-mlx.svg"
   xmlns:inkscape="http://www.inkscape.org/namespaces/inkscape"
   xmlns:sodipodi="http://sodipodi.sourceforge.net/DTD/sodipodi-0.dtd"
   xmlns:xlink="http://www.w3.org/1999/xlink"
   xmlns="http://www.w3.org/2000/svg"
   xmlns:svg="http://www.w3.org/2000/svg"><sodipodi:namedview
     id="namedview1"
     pagecolor="#505050"
     bordercolor="#eeeeee"
     borderopacity="1"
     inkscape:showpageshadow="0"
     inkscape:pageopacity="0"
     inkscape:pagecheckerboard="0"
     inkscape:deskcolor="#505050"
     inkscape:document-units="px"
     inkscape:zoom="0.47552166"
     inkscape:cx="821.20339"
     inkscape:cy="451.08355"
     inkscape:window-width="1712"
     inkscape:window-height="978"
     inkscape:window-x="0"
     inkscape:window-y="35"
     inkscape:window-maximized="0"
     inkscape:current-layer="g7" /><defs
     id="defs1"><linearGradient
       id="linearGradient11"
       inkscape:collect="always"><stop
         style="stop-color:#ec5629;stop-opacity:1;"
         offset="0"
         id="stop10" /><stop
         style="stop-color:#f38f36;stop-opacity:1;"
         offset="1"
         id="stop11" /></linearGradient><linearGradient
       inkscape:collect="always"
       xlink:href="#linearGradient11"
       id="linearGradient5"
       x1="-337.57175"
       y1="191.65225"
       x2="982.81427"
       y2="191.65225"
       gradientUnits="userSpaceOnUse"
       gradientTransform="matrix(1.0566868,0,0,1.0566868,158.21217,92.498871)" /></defs><g
     inkscape:label="Layer 1"
     inkscape:groupmode="layer"
     id="layer1"><g
       id="g6"
       transform="translate(0,-72.425522)"><g
         id="g7"
         transform="matrix(0.93663056,0,0,0.93663056,38.021664,91.386624)"><g
           id="g5"
           transform="translate(15.331414,20.672165)"><g
             id="g13"
             transform="translate(0.27125855,1.4016195)"><text
               xml:space="preserve"
               style="font-style:italic;font-size:202.884px;font-family:'Times New Roman';-inkscape-font-specification:'Times New Roman,  Italic';text-align:center;letter-spacing:0px;writing-mode:lr-tb;direction:ltr;text-anchor:middle;fill:url(#linearGradient5);stroke-width:4.22675;stroke-linecap:round"
               x="483.77264"
               y="350.34268"
               id="text1"><tspan
                 sodipodi:role="line"
                 id="tspan1"
                 x="483.77264"
                 y="350.34268"
                 style="font-style:normal;font-variant:normal;font-weight:bold;font-stretch:normal;font-family:B612;-inkscape-font-specification:'B612 Bold';letter-spacing:0px;fill:url(#linearGradient5);stroke-width:4.22675"
                 dx="-20">Openfold3</tspan></text><text
               xml:space="preserve"
               style="font-style:italic;font-size:106.621px;font-family:'Times New Roman';-inkscape-font-specification:'Times New Roman,  Italic';text-align:center;letter-spacing:0px;writing-mode:lr-tb;direction:ltr;text-anchor:middle;fill:#1a1a1a;fill-opacity:1;stroke-width:2.22128;stroke-linecap:round"
               x="1089.9236"
               y="260.9166"
               id="text1-9"><tspan
                 sodipodi:role="line"
                 id="tspan1-1"
                 x="1089.9236"
                 y="260.9166"
                 style="font-style:normal;font-variant:normal;font-weight:bold;font-stretch:normal;font-family:'Helvetica Neue';-inkscape-font-specification:'Helvetica Neue Bold';letter-spacing:0px;fill:#1a1a1a;fill-opacity:1;stroke-width:2.22128">ML<tspan
   style="font-style:normal;font-variant:normal;font-weight:bold;font-stretch:normal;font-family:'Helvetica Neue';-inkscape-font-specification:'Helvetica Neue Bold';fill:#999999;stroke-width:2.22128"
   id="tspan11">X</tspan></tspan></text></g></g><text
           xml:space="preserve"
           style="font-style:italic;font-variant:normal;font-weight:508;font-stretch:normal;font-size:64px;font-family:'System Font';-inkscape-font-specification:'System Font weight=508 Italic';text-align:center;letter-spacing:0px;writing-mode:lr-tb;direction:ltr;text-anchor:middle;fill:#ffffff;fill-opacity:1;stroke-width:4;stroke-linecap:round"
           x="734.36963"
           y="441.48477"
           id="text5"><tspan
             sodipodi:role="line"
             x="734.36963"
             y="441.48477"
             style="font-size:64px;letter-spacing:0px;fill:#ffffff;fill-opacity:1"
             id="tspan6"><tspan
   id="tspan13"
   style="font-style:italic;font-variant:normal;font-weight:normal;font-stretch:normal;font-size:51.2475px;font-family:B612;-inkscape-font-specification:'B612 Italic';letter-spacing:0px;fill:#ffffff;fill-opacity:1">Protein folding arrives on Apple Silicon</tspan>.</tspan></text><text
           xml:space="preserve"
           style="font-style:italic;font-variant:normal;font-weight:508;font-stretch:normal;font-size:64px;font-family:'System Font';-inkscape-font-specification:'System Font weight=508 Italic';text-align:center;letter-spacing:0px;writing-mode:lr-tb;direction:ltr;text-anchor:middle;fill:#98afe4;fill-opacity:1;stroke-width:4;stroke-linecap:round"
           x="389.90619"
           y="166.36829"
           id="text5-5"><tspan
             sodipodi:role="line"
             id="tspan5-7"
             x="389.90619"
             y="166.36829"
             style="font-size:64px;letter-spacing:0px;fill:#98afe4;fill-opacity:1" /><tspan
             sodipodi:role="line"
             x="389.90619"
             y="246.36829"
             style="font-size:64px;letter-spacing:0px;fill:#98afe4;fill-opacity:1"
             id="tspan6-1" /></text></g><g
         id="g8"
         transform="matrix(0.3344926,0,0,0.3344926,14.161807,325.26786)"><path
           d="m 377.57511,3.4026167 c 3.85,-1.823 7.337,-3.35399997 7.748,-3.40199996825 0.411,-0.0480000017 -1.313,2.71199996825 -3.831,6.13299996825 -4.397,5.9720003 -8.875,13.1710003 -14.173,22.7800003 -4.335,7.863 -17.996,27.612 -28.38,41.029 -25.132,32.472003 -62.058,66.042003 -99.934,90.851003 l -9.569,6.268 0.434,16.176 c 0.375,13.981 0.133,17.601 -1.785,26.676 -2.464,11.659 -7.571,25.34 -12.164,32.582 -4.852,7.651 -13.786,19.418 -14.742,19.418 -0.485,0 -1.189,-1.687 -1.565,-3.75 -1.212,-6.649 -7.607,-21.484 -13.687,-31.75 -6.987,-11.796 -17.357,-24.5 -20,-24.5 -1.015,0 -3.535,1.486 -5.599,3.301 -2.064,1.816 -8.41,6.593 -14.102,10.616 -5.692,4.024 -19.46,14.125 -30.595,22.449 -24.982998,18.675 -43.827998,32.272 -71.055998,51.269 -39.427,27.509 -44.05600003,30.374 -28.867,17.865 2.672,-2.2 7.335,-6.275 10.362,-9.056 3.028,-2.782 11.128,-9.982 18.001,-16 6.873,-6.019 24.661,-21.744 39.528,-34.944 25.803998,-22.911 36.496998,-32.195 53.390998,-46.358 4.172,-3.498 9.61,-8.063 12.085,-10.145 l 4.5,-3.787 -3,-3.191 c -5.766,-6.134 -4.958,-6.507 -22.223,10.264 -21.928,21.301 -45.290998,43.202 -61.794998,57.929 -7.69,6.862 -22.95,20.984 -33.911,31.382 -28.816,27.336 -32.01900003,30.265 -32.54200003,29.756 -0.259,-0.252 -0.018,-0.772 0.537,-1.154 0.55400003,-0.383 5.03400003,-5.421 9.95600003,-11.196 4.922,-5.775 11.655,-13.45 14.963,-17.055 8.283,-9.025 26.737,-29.794 35.05,-39.445 9.076,-10.537 35.383,-39.166 53.250998,-57.953 16.315,-17.155 16.036,-15.014 2.826,-21.71 -14.57,-7.385 -29.960998,-11.757 -54.611998,-15.514 l -3.5,-0.533 5.678,-5.145 c 11.473,-10.397 29.446,-19.346 48.821998,-24.309 13.392,-3.43 36.26,-5.047 49.872,-3.526 l 10.398,1.162 10.615,-9.769 c 20.555,-18.916003 28.368,-24.911003 58.615,-44.975003 25.9,-17.18 65.813,-36.368 91,-43.748 18.791,-5.506 37.255,-11.7970003 44,-14.9910003 m -75.737,50.0760003 c 5.634,-3.057 13.151,-0.868 16.113,4.692 3.523,6.612 -3.161,16.743 -11.047,16.743 -5.549,0 -10.829,-5.095 -10.829,-10.45 0,-4.71 2.308,-9.11 5.763,-10.985 m -49.549,31.103 c 10.299,-2.162 19.885,4.904 20.034,14.769 0.123,8.119003 -7.551,15.563003 -16.043,15.563003 -2.66,0 -3.475,-0.609 -5.112,-3.818 -1.072,-2.1 -3.824,-5.513 -6.116,-7.584 -3.858,-3.485 -4.117,-4.038003 -3.482,-7.423003 0.768,-4.093 6.933,-10.711 10.719,-11.507"
           stroke="none"
           fill="#0f0f0f"
           fill-rule="evenodd"
           id="path3"
           sodipodi:nodetypes="csccccccccsscscccccscccccccssccsccccccccccccccccsscccscccc"
           style="fill:#ffffff"
           inkscape:label="path3" /><g
           id="layer1-0"
           inkscape:label="Layer 2"
           transform="translate(-32.924888,-91.086383)"><path
             d="m 271.03532,189.01927 c -7.95746,-2.90996 -18.36001,-0.36533 -25.97214,6.35153 -8.6546,7.63668 -9.35929,23.43594 -1.44595,32.40406 11.24609,12.74514 37.15141,9.09997 42.81347,-6.02304 4.76185,-12.71612 -2.4202,-27.98657 -15.39538,-32.73255"
             style="fill:#f55f06;fill-opacity:1;fill-rule:evenodd;stroke:none;stroke-width:2.15539"
             id="path1-8" /></g></g></g></g></svg>
